<?xml version="1.0" standalone="no"?>
<!DOCTYPE svg PUBLIC "-//W3C//DTD SVG 20010904//EN"
 "http://www.w3.org/TR/2001/REC-SVG-20010904/DTD/svg10.dtd">
<svg version="1.0" xmlns="http://www.w3.org/2000/svg"
 width="980.000000pt" height="980.000000pt" viewBox="0 0 980.000000 980.000000"
 preserveAspectRatio="xMidYMid meet">

<g transform="translate(0.000000,980.000000) scale(0.100000,-0.100000)"
fill="#ddd" stroke="none">
<path d="M4505 9789 c-298 -17 -743 -107 -1095 -221 -297 -96 -691 -270 -955
-423 -680 -393 -1273 -961 -1692 -1620 -640 -1007 -891 -2229 -698 -3397 136
-824 476 -1600 991 -2259 172 -220 518 -566 794 -794 414 -342 1014 -663 1568
-839 677 -214 1390 -281 2081 -196 975 121 1886 531 2631 1186 227 199 505
500 692 749 411 548 716 1210 861 1870 84 383 111 636 111 1050 0 448 -38 762
-139 1171 -164 664 -488 1337 -879 1828 -199 250 -605 665 -811 829 -647 515
-1396 854 -2209 1002 -319 58 -874 86 -1251 64z m640 -969 c342 -18 438 -31
680 -92 1121 -279 2071 -1033 2578 -2048 213 -424 327 -788 391 -1247 l6 -43
-749 0 -750 0 -11 43 c-95 370 -242 679 -463 972 -148 196 -433 448 -667 589
-235 142 -555 269 -787 312 -109 20 -607 30 -788 15 -331 -26 -730 -176 -1056
-397 -492 -333 -856 -857 -1004 -1444 l-21 -85 -752 -3 -752 -2 0 21 c0 43 52
307 90 457 217 849 693 1572 1416 2150 493 395 1131 669 1804 776 85 14 166
27 180 29 52 9 472 7 655 -3z m60 -2474 c124 -21 183 -40 304 -97 437 -206
763 -613 838 -1045 21 -125 25 -484 5 -588 -47 -246 -156 -463 -339 -669 -241
-272 -506 -432 -820 -493 -117 -23 -425 -24 -568 -1 -279 44 -541 183 -760
402 -133 133 -218 251 -295 410 -109 223 -134 342 -134 650 -1 229 7 289 56
440 105 320 339 617 634 807 130 84 365 177 494 197 95 14 476 6 585 -13z
m-2675 -2041 c140 -545 456 -1019 905 -1355 672 -503 1558 -626 2342 -324 634
244 1138 740 1391 1370 27 67 68 190 92 273 l44 151 749 0 748 0 -5 -32 c-3
-18 -12 -81 -21 -140 -69 -495 -322 -1113 -652 -1598 -119 -173 -182 -249
-378 -449 -291 -297 -519 -487 -753 -627 -157 -94 -515 -273 -682 -341 -436
-179 -989 -274 -1510 -260 -897 25 -1702 327 -2410 906 -136 111 -402 377
-516 514 -371 451 -641 981 -787 1552 -35 136 -87 406 -87 452 l0 23 751 -2
751 -3 28 -110z"/>
<path d="M4790 5860 c-214 -22 -408 -112 -568 -264 -196 -186 -307 -496 -281
-786 30 -348 239 -636 576 -796 120 -57 164 -64 388 -64 229 0 256 5 398 76
129 65 202 117 292 209 137 140 238 335 257 497 12 112 4 363 -15 433 -20 71
-79 192 -138 280 -156 232 -396 380 -674 414 -98 12 -122 12 -235 1z"/>
</g>
</svg>
